<svg xmlns="http://www.w3.org/2000/svg" xmlns:xlink="http://www.w3.org/1999/xlink" width="100" zoomAndPan="magnify" viewBox="0 0 75 74.999997" height="100" preserveAspectRatio="xMidYMid meet" version="1.0"><defs><clipPath id="13042b0cda"><path d="M 18 65 L 51 65 L 51 69.992188 L 18 69.992188 Z M 18 65 " clip-rule="nonzero"/></clipPath><clipPath id="c66e484312"><path d="M 18 65 L 50 65 L 50 69.992188 L 18 69.992188 Z M 18 65 " clip-rule="nonzero"/></clipPath><clipPath id="564311bc43"><path d="M 3.289062 15 L 67 15 L 67 57 L 3.289062 57 Z M 3.289062 15 " clip-rule="nonzero"/></clipPath><clipPath id="5023803e87"><path d="M 17.941406 64.535156 L 51.605469 64.535156 L 51.605469 69.972656 L 17.941406 69.972656 Z M 17.941406 64.535156 " clip-rule="nonzero"/></clipPath><clipPath id="e994153b95"><path d="M 16 4.742188 L 54 4.742188 L 54 53 L 16 53 Z M 16 4.742188 " clip-rule="nonzero"/></clipPath><clipPath id="a6957b8c7f"><path d="M 66.492188 28.488281 L 71.539062 28.488281 L 71.539062 37.566406 L 66.492188 37.566406 Z M 66.492188 28.488281 " clip-rule="nonzero"/></clipPath></defs><path fill="#ff7973" d="M 47.527344 7.636719 C 48.390625 7.636719 49.089844 8.335938 49.089844 9.195312 C 49.089844 10.054688 48.390625 10.757812 47.527344 10.757812 C 46.667969 10.757812 45.964844 10.054688 45.964844 9.195312 C 45.964844 8.335938 46.667969 7.636719 47.527344 7.636719 Z M 52.488281 12.945312 L 52.488281 7.214844 C 52.488281 6.28125 51.726562 5.519531 50.789062 5.519531 L 18.746094 5.519531 C 17.8125 5.519531 17.046875 6.28125 17.046875 7.214844 L 17.046875 12.945312 L 52.488281 12.945312 " fill-opacity="1" fill-rule="nonzero"/><path fill="#ffffff" d="M 52.46875 28.882812 L 52.5 28.882812 C 52.492188 28.863281 52.488281 28.847656 52.488281 28.828125 L 52.488281 13.320312 L 17.046875 13.320312 L 17.046875 52.136719 L 52.488281 52.136719 L 52.488281 37.1875 C 52.46875 37.1875 52.46875 28.882812 52.46875 28.882812 " fill-opacity="1" fill-rule="nonzero"/><path fill="#ebebeb" d="M 52.472656 28.882812 L 52.5 28.882812 C 52.492188 28.863281 52.488281 28.847656 52.488281 28.828125 L 52.488281 13.1875 L 49.46875 13.1875 L 49.46875 25.8125 C 49.46875 25.832031 49.472656 25.847656 49.480469 25.867188 L 49.449219 25.867188 L 49.449219 34.171875 C 49.46875 34.171875 49.46875 46.390625 49.46875 46.390625 C 49.46875 47.898438 48.242188 49.121094 46.734375 49.121094 L 24.988281 49.121094 C 22.28125 49.121094 19.683594 50.195312 17.769531 52.105469 L 17.738281 52.136719 L 52.488281 52.136719 L 52.488281 37.1875 C 52.472656 37.1875 52.472656 28.882812 52.472656 28.882812 " fill-opacity="1" fill-rule="nonzero"/><path fill="#fa5e57" d="M 49.46875 12.992188 C 49.46875 12.992188 52.488281 12.992188 52.488281 12.992188 L 52.488281 6.6875 C 52.414062 6.65625 52.40625 6.652344 52.332031 6.621094 C 52.207031 6.746094 52.082031 6.871094 51.957031 6.996094 C 50.363281 8.585938 49.46875 10.746094 49.46875 12.992188 " fill-opacity="1" fill-rule="nonzero"/><path fill="#67b2f0" d="M 60.878906 20.265625 C 61.390625 20.265625 61.804688 20.679688 61.804688 21.1875 L 61.804688 27.910156 L 65.492188 27.910156 L 65.492188 19.335938 C 65.492188 17.816406 64.257812 16.582031 62.738281 16.582031 L 52.867188 16.582031 L 52.867188 20.265625 L 60.878906 20.265625 " fill-opacity="1" fill-rule="nonzero"/><path fill="#ff7973" d="M 39.875 43.542969 L 29.660156 43.542969 C 29.199219 43.542969 28.820312 43.917969 28.820312 44.382812 L 28.820312 47.101562 C 28.820312 47.5625 29.199219 47.9375 29.660156 47.9375 L 39.875 47.9375 C 40.339844 47.9375 40.714844 47.5625 40.714844 47.101562 L 40.714844 44.382812 C 40.714844 43.917969 40.339844 43.542969 39.875 43.542969 " fill-opacity="1" fill-rule="nonzero"/><path fill="#ffc042" d="M 41.941406 36.8125 L 60.441406 36.8125 L 60.441406 29.257812 L 41.941406 29.257812 L 41.941406 36.8125 " fill-opacity="1" fill-rule="nonzero"/><path fill="#67b2f0" d="M 26.972656 64.929688 L 42.566406 64.929688 L 42.566406 56.570312 L 26.972656 56.570312 L 26.972656 64.929688 " fill-opacity="1" fill-rule="nonzero"/><path fill="#478ce6" d="M 26.503906 56.570312 L 37.882812 58.890625 C 38.851562 59.085938 39.546875 59.9375 39.546875 60.921875 L 39.546875 64.929688 L 42.566406 64.929688 L 42.566406 56.570312 L 26.503906 56.570312 " fill-opacity="1" fill-rule="nonzero"/><g clip-path="url(#13042b0cda)"><path fill="#67b2f0" d="M 42.753906 65.304688 C 42.753906 65.304688 21.457031 65.304688 21.457031 65.304688 C 19.9375 65.304688 18.703125 66.539062 18.703125 68.054688 L 18.703125 69.039062 C 18.703125 69.136719 18.785156 69.21875 18.882812 69.21875 L 50.65625 69.21875 C 50.753906 69.21875 50.835938 69.136719 50.835938 69.039062 L 50.835938 68.054688 C 50.835938 66.539062 49.597656 65.304688 48.078125 65.304688 L 42.753906 65.304688 " fill-opacity="1" fill-rule="nonzero"/></g><path fill="#ffffff" d="M 66.085938 28.289062 L 61.601562 28.289062 C 61.171875 28.289062 60.820312 28.640625 60.820312 29.070312 L 60.820312 37 C 60.820312 37.429688 61.171875 37.78125 61.601562 37.78125 L 66.085938 37.78125 C 66.515625 37.78125 66.867188 37.429688 66.867188 37 L 66.867188 29.070312 C 66.867188 28.640625 66.515625 28.289062 66.085938 28.289062 " fill-opacity="1" fill-rule="nonzero"/><path fill="#67b2f0" d="M 61.804688 51.589844 C 61.804688 52.097656 61.390625 52.511719 60.878906 52.511719 L 8.65625 52.511719 C 8.144531 52.511719 7.730469 52.097656 7.730469 51.589844 L 7.730469 21.1875 C 7.730469 20.679688 8.144531 20.265625 8.65625 20.265625 L 16.671875 20.265625 L 16.671875 16.582031 L 6.800781 16.582031 C 5.28125 16.582031 4.046875 17.816406 4.046875 19.335938 L 4.046875 53.441406 C 4.046875 54.960938 5.28125 56.195312 6.800781 56.195312 L 26.78125 56.195312 C 26.785156 56.195312 42.753906 56.195312 42.753906 56.195312 C 42.753906 56.195312 62.738281 56.195312 62.738281 56.195312 C 64.257812 56.195312 65.492188 54.960938 65.492188 53.441406 L 65.492188 38.160156 L 61.804688 38.160156 L 61.804688 51.589844 " fill-opacity="1" fill-rule="nonzero"/><path fill="#478ce6" d="M 65.140625 17.457031 C 63.792969 18.804688 63.035156 20.628906 63.035156 22.535156 L 63.035156 28.125 L 65.738281 28.125 L 65.738281 18.195312 C 65.585938 17.910156 65.382812 17.664062 65.140625 17.457031 " fill-opacity="1" fill-rule="nonzero"/><path fill="#478ce6" d="M 63.035156 37.921875 L 63.035156 51.039062 C 63.035156 52.558594 61.800781 53.789062 60.277344 53.789062 L 40.296875 53.789062 C 40.296875 53.789062 24.324219 53.789062 24.324219 53.789062 C 24.324219 53.789062 9.117188 53.789062 9.117188 53.789062 C 7.578125 53.789062 6.101562 54.398438 5.015625 55.484375 C 5.191406 55.769531 5.414062 56.023438 5.675781 56.226562 L 63.59375 56.226562 C 63.679688 56.183594 63.765625 56.140625 63.851562 56.09375 C 64.585938 55.695312 65.019531 55.09375 65.414062 54.378906 C 65.527344 54.175781 65.636719 53.972656 65.738281 53.765625 L 65.738281 37.921875 L 63.035156 37.921875 " fill-opacity="1" fill-rule="nonzero"/><path fill="#ffffff" d="M 35.808594 32.636719 C 35.660156 32.71875 35.574219 32.867188 35.574219 33.035156 C 35.574219 33.203125 35.660156 33.351562 35.808594 33.433594 L 41.566406 36.675781 L 41.566406 29.394531 L 35.808594 32.636719 " fill-opacity="1" fill-rule="nonzero"/><path fill="#67b2f0" d="M 8.65625 20.640625 C 8.355469 20.640625 8.109375 20.886719 8.109375 21.1875 L 8.109375 51.589844 C 8.109375 51.890625 8.355469 52.136719 8.65625 52.136719 L 16.671875 52.136719 L 16.671875 20.640625 L 8.65625 20.640625 " fill-opacity="1" fill-rule="nonzero"/><path fill="#ffffff" d="M 16.859375 20.640625 L 8.65625 20.640625 C 8.355469 20.640625 8.109375 20.886719 8.109375 21.1875 L 8.109375 51.589844 C 8.109375 51.890625 8.355469 52.136719 8.65625 52.136719 L 9.621094 52.136719 L 9.621094 23.433594 C 9.621094 22.722656 10.195312 22.148438 10.90625 22.148438 L 16.859375 22.148438 L 16.859375 20.640625 " fill-opacity="1" fill-rule="nonzero"/><path fill="#ff7973" d="M 68.382812 29.257812 L 67.246094 29.257812 L 67.246094 36.8125 L 68.382812 36.8125 C 69.707031 36.8125 70.785156 35.734375 70.785156 34.410156 L 70.785156 31.65625 C 70.785156 30.335938 69.707031 29.257812 68.382812 29.257812 " fill-opacity="1" fill-rule="nonzero"/><path fill="#ffffff" d="M 64.15625 16.984375 C 63.738281 16.734375 63.257812 16.582031 62.738281 16.582031 L 52.867188 16.582031 L 52.867188 18.089844 L 61.222656 18.089844 C 62.234375 18.089844 63.230469 17.773438 64.003906 17.125 C 64.058594 17.078125 64.109375 17.03125 64.15625 16.984375 " fill-opacity="1" fill-rule="nonzero"/><path fill="#ffffff" d="M 39.875 43.542969 L 29.660156 43.542969 C 29.195312 43.542969 28.820312 43.917969 28.820312 44.382812 L 28.820312 47.101562 C 28.820312 47.460938 29.046875 47.761719 29.367188 47.882812 L 29.601562 47.644531 C 30.070312 47.179688 30.332031 46.546875 30.332031 45.886719 C 30.332031 45.425781 30.707031 45.050781 31.167969 45.050781 L 36.847656 45.050781 C 38.125 45.050781 39.355469 44.542969 40.257812 43.640625 C 40.144531 43.582031 40.015625 43.542969 39.875 43.542969 " fill-opacity="1" fill-rule="nonzero"/><path fill="#ffffff" d="M 60.441406 30.765625 L 60.441406 29.257812 L 41.941406 29.257812 L 41.941406 30.765625 L 60.441406 30.765625 " fill-opacity="1" fill-rule="nonzero"/><path fill="#ffffff" d="M 28.480469 56.570312 L 26.972656 56.570312 L 26.972656 64.929688 L 28.480469 64.929688 L 28.480469 56.570312 " fill-opacity="1" fill-rule="nonzero"/><g clip-path="url(#c66e484312)"><path fill="#ffffff" d="M 48.078125 65.304688 C 48.078125 65.304688 42.753906 65.304688 42.753906 65.304688 L 21.457031 65.304688 C 19.9375 65.304688 18.703125 66.535156 18.703125 68.054688 L 18.703125 69.039062 C 18.703125 69.136719 18.78125 69.21875 18.882812 69.21875 C 18.882812 69.21875 19.449219 69.21875 19.449219 69.21875 C 19.613281 69.199219 20.023438 68.613281 20.152344 68.472656 C 20.402344 68.207031 20.683594 67.90625 20.976562 67.65625 C 21.542969 67.167969 22.199219 66.8125 22.96875 66.8125 C 22.96875 66.8125 44.261719 66.8125 44.265625 66.8125 L 47.5 66.8125 C 48.34375 66.8125 49.152344 66.476562 49.75 65.882812 C 49.285156 65.523438 48.710938 65.304688 48.078125 65.304688 " fill-opacity="1" fill-rule="nonzero"/></g><path fill="#ffffff" d="M 51.703125 5.792969 C 51.441406 5.621094 51.128906 5.519531 50.789062 5.519531 L 18.746094 5.519531 C 17.808594 5.519531 17.046875 6.277344 17.046875 7.214844 L 17.046875 12.945312 L 18.558594 12.945312 L 18.558594 8.722656 C 18.558594 7.785156 19.320312 7.027344 20.257812 7.027344 L 48.71875 7.027344 C 49.839844 7.027344 50.914062 6.582031 51.703125 5.792969 " fill-opacity="1" fill-rule="nonzero"/><path fill="#ffffff" d="M 6.800781 16.582031 C 5.277344 16.582031 4.046875 17.816406 4.046875 19.335938 L 4.046875 53.441406 C 4.046875 53.894531 4.15625 54.316406 4.351562 54.695312 C 5.121094 53.925781 5.554688 52.878906 5.554688 51.792969 L 5.554688 20.839844 C 5.554688 19.320312 6.789062 18.089844 8.308594 18.089844 L 16.671875 18.089844 L 16.671875 16.582031 L 6.800781 16.582031 " fill-opacity="1" fill-rule="nonzero"/><path fill="#67b2f0" d="M 61.425781 51.589844 L 61.425781 38.140625 C 60.933594 38.066406 60.542969 37.679688 60.460938 37.1875 L 52.867188 37.1875 L 52.867188 52.136719 L 60.878906 52.136719 C 61.183594 52.136719 61.425781 51.890625 61.425781 51.589844 " fill-opacity="1" fill-rule="nonzero"/><path fill="#ffffff" d="M 47.527344 10.378906 C 48.179688 10.378906 48.714844 9.847656 48.714844 9.195312 C 48.714844 8.542969 48.179688 8.011719 47.527344 8.011719 C 46.875 8.011719 46.34375 8.542969 46.34375 9.195312 C 46.34375 9.847656 46.875 10.378906 47.527344 10.378906 " fill-opacity="1" fill-rule="nonzero"/><path fill="#67b2f0" d="M 61.429688 21.1875 C 61.429688 20.886719 61.183594 20.640625 60.878906 20.640625 L 52.867188 20.640625 L 52.867188 28.828125 C 52.867188 28.847656 52.859375 28.863281 52.855469 28.882812 L 60.460938 28.882812 C 60.542969 28.390625 60.933594 28.003906 61.429688 27.929688 L 61.429688 21.1875 " fill-opacity="1" fill-rule="nonzero"/><path fill="#ffffff" d="M 52.683594 20.640625 L 52.683594 22.148438 L 61.617188 22.148438 L 61.617188 20.640625 L 52.683594 20.640625 " fill-opacity="1" fill-rule="nonzero"/><path fill="#ebebeb" d="M 35.859375 33.304688 C 35.855469 33.320312 41.710938 36.617188 41.710938 36.617188 L 41.710938 33.859375 C 41.066406 33.496094 40.339844 33.304688 39.597656 33.304688 L 35.859375 33.304688 " fill-opacity="1" fill-rule="nonzero"/><path fill="#fa5e57" d="M 67.054688 33.859375 L 67.054688 37.164062 L 68.214844 37.164062 C 69.71875 37.164062 70.933594 35.945312 70.933594 34.449219 L 70.933594 30.011719 L 67.054688 33.859375 " fill-opacity="1" fill-rule="nonzero"/><path fill="#ebebeb" d="M 61.070312 34.972656 L 66.984375 34.972656 L 66.984375 36.859375 C 66.984375 37.640625 66.347656 38.277344 65.5625 38.277344 L 62.492188 38.277344 C 61.707031 38.277344 61.070312 37.640625 61.070312 36.859375 L 61.070312 34.972656 " fill-opacity="1" fill-rule="nonzero"/><path fill="#ff9f29" d="M 60.726562 33.859375 L 60.726562 37.164062 L 41.710938 37.164062 L 41.710938 33.859375 L 60.726562 33.859375 " fill-opacity="1" fill-rule="nonzero"/><g clip-path="url(#564311bc43)"><path fill="#002766" d="M 62.738281 56.949219 L 6.800781 56.949219 C 4.863281 56.949219 3.289062 55.375 3.289062 53.441406 L 3.289062 19.335938 C 3.289062 17.402344 4.863281 15.828125 6.800781 15.828125 L 16.859375 15.828125 C 17.171875 15.828125 17.425781 16.082031 17.425781 16.394531 C 17.425781 16.707031 17.171875 16.960938 16.859375 16.960938 L 6.800781 16.960938 C 5.488281 16.960938 4.421875 18.023438 4.421875 19.335938 L 4.421875 53.441406 C 4.421875 54.753906 5.488281 55.816406 6.800781 55.816406 L 62.738281 55.816406 C 64.046875 55.816406 65.113281 54.753906 65.113281 53.441406 L 65.113281 37.96875 C 65.113281 37.65625 65.367188 37.40625 65.679688 37.40625 C 65.992188 37.40625 66.246094 37.65625 66.246094 37.96875 L 66.246094 53.441406 C 66.246094 55.375 64.671875 56.949219 62.738281 56.949219 " fill-opacity="1" fill-rule="nonzero"/></g><path fill="#002766" d="M 65.679688 28.664062 C 65.367188 28.664062 65.113281 28.410156 65.113281 28.097656 L 65.113281 19.332031 C 65.113281 18.023438 64.046875 16.960938 62.738281 16.960938 L 52.675781 16.960938 C 52.363281 16.960938 52.109375 16.707031 52.109375 16.394531 C 52.109375 16.082031 52.363281 15.828125 52.675781 15.828125 L 62.738281 15.828125 C 64.671875 15.828125 66.246094 17.402344 66.246094 19.332031 L 66.246094 28.097656 C 66.246094 28.410156 65.992188 28.664062 65.679688 28.664062 " fill-opacity="1" fill-rule="nonzero"/><path fill="#002766" d="M 42.753906 65.683594 C 42.441406 65.683594 42.1875 65.429688 42.1875 65.117188 L 42.1875 56.382812 C 42.1875 56.070312 42.441406 55.816406 42.753906 55.816406 C 43.066406 55.816406 43.320312 56.070312 43.320312 56.382812 L 43.320312 65.117188 C 43.320312 65.429688 43.066406 65.683594 42.753906 65.683594 " fill-opacity="1" fill-rule="nonzero"/><path fill="#002766" d="M 26.78125 65.683594 C 26.46875 65.683594 26.214844 65.429688 26.214844 65.117188 L 26.214844 56.382812 C 26.214844 56.070312 26.46875 55.816406 26.78125 55.816406 C 27.09375 55.816406 27.347656 56.070312 27.347656 56.382812 L 27.347656 65.117188 C 27.347656 65.429688 27.09375 65.683594 26.78125 65.683594 " fill-opacity="1" fill-rule="nonzero"/><path fill="#002766" d="M 60.878906 52.890625 L 8.65625 52.890625 C 7.9375 52.890625 7.355469 52.308594 7.355469 51.589844 L 7.355469 21.1875 C 7.355469 20.46875 7.9375 19.886719 8.65625 19.886719 L 16.859375 19.886719 C 17.171875 19.886719 17.425781 20.140625 17.425781 20.453125 C 17.425781 20.765625 17.171875 21.019531 16.859375 21.019531 L 8.65625 21.019531 C 8.5625 21.019531 8.488281 21.09375 8.488281 21.1875 L 8.488281 51.589844 C 8.488281 51.683594 8.5625 51.757812 8.65625 51.757812 L 60.878906 51.757812 C 60.972656 51.757812 61.050781 51.683594 61.050781 51.589844 L 61.050781 37.96875 C 61.050781 37.65625 61.304688 37.40625 61.617188 37.40625 C 61.929688 37.40625 62.183594 37.65625 62.183594 37.96875 L 62.183594 51.589844 C 62.183594 52.308594 61.597656 52.890625 60.878906 52.890625 " fill-opacity="1" fill-rule="nonzero"/><path fill="#002766" d="M 61.617188 28.664062 C 61.304688 28.664062 61.050781 28.410156 61.050781 28.097656 L 61.050781 21.1875 C 61.050781 21.09375 60.972656 21.019531 60.878906 21.019531 L 52.675781 21.019531 C 52.363281 21.019531 52.109375 20.765625 52.109375 20.453125 C 52.109375 20.140625 52.363281 19.886719 52.675781 19.886719 L 60.878906 19.886719 C 61.597656 19.886719 62.183594 20.46875 62.183594 21.1875 L 62.183594 28.097656 C 62.183594 28.410156 61.929688 28.664062 61.617188 28.664062 " fill-opacity="1" fill-rule="nonzero"/><g clip-path="url(#5023803e87)"><path fill="#002766" d="M 19.082031 68.839844 L 50.457031 68.839844 L 50.457031 68.054688 C 50.457031 66.746094 49.390625 65.683594 48.078125 65.683594 L 21.457031 65.683594 C 20.148438 65.683594 19.082031 66.746094 19.082031 68.054688 Z M 50.65625 69.972656 L 18.882812 69.972656 C 18.367188 69.972656 17.949219 69.554688 17.949219 69.039062 L 17.949219 68.054688 C 17.949219 66.125 19.523438 64.550781 21.457031 64.550781 L 48.078125 64.550781 C 50.015625 64.550781 51.589844 66.125 51.589844 68.054688 L 51.589844 69.039062 C 51.589844 69.554688 51.171875 69.972656 50.65625 69.972656 " fill-opacity="1" fill-rule="nonzero"/></g><path fill="#002766" d="M 52.675781 52.890625 C 52.363281 52.890625 52.109375 52.636719 52.109375 52.324219 L 52.109375 37 C 52.109375 36.6875 52.363281 36.433594 52.675781 36.433594 C 52.988281 36.433594 53.242188 36.6875 53.242188 37 L 53.242188 52.324219 C 53.242188 52.636719 52.988281 52.890625 52.675781 52.890625 " fill-opacity="1" fill-rule="nonzero"/><g clip-path="url(#e994153b95)"><path fill="#002766" d="M 16.859375 52.890625 C 16.546875 52.890625 16.292969 52.636719 16.292969 52.324219 L 16.292969 7.214844 C 16.292969 5.863281 17.394531 4.765625 18.746094 4.765625 L 50.789062 4.765625 C 52.140625 4.765625 53.242188 5.863281 53.242188 7.214844 L 53.242188 28.828125 C 53.242188 29.140625 52.988281 29.394531 52.675781 29.394531 C 52.363281 29.394531 52.109375 29.140625 52.109375 28.828125 L 52.109375 7.214844 C 52.109375 6.488281 51.519531 5.894531 50.789062 5.894531 L 18.746094 5.894531 C 18.019531 5.894531 17.425781 6.488281 17.425781 7.214844 L 17.425781 52.324219 C 17.425781 52.636719 17.171875 52.890625 16.859375 52.890625 " fill-opacity="1" fill-rule="nonzero"/></g><path fill="#002766" d="M 27.351562 19.558594 C 27.039062 19.558594 26.785156 19.304688 26.785156 18.992188 L 26.785156 18.222656 L 21.957031 18.222656 L 21.957031 18.992188 C 21.957031 19.304688 21.703125 19.558594 21.390625 19.558594 C 21.078125 19.558594 20.824219 19.304688 20.824219 18.992188 L 20.824219 17.65625 C 20.824219 17.34375 21.078125 17.089844 21.390625 17.089844 L 27.351562 17.089844 C 27.664062 17.089844 27.917969 17.34375 27.917969 17.65625 L 27.917969 18.992188 C 27.917969 19.304688 27.664062 19.558594 27.351562 19.558594 " fill-opacity="1" fill-rule="nonzero"/><path fill="#002766" d="M 24.371094 24.550781 C 24.058594 24.550781 23.804688 24.296875 23.804688 23.984375 L 23.804688 17.65625 C 23.804688 17.34375 24.058594 17.089844 24.371094 17.089844 C 24.683594 17.089844 24.9375 17.34375 24.9375 17.65625 L 24.9375 23.984375 C 24.9375 24.296875 24.683594 24.550781 24.371094 24.550781 " fill-opacity="1" fill-rule="nonzero"/><path fill="#002766" d="M 52.675781 13.699219 L 16.859375 13.699219 C 16.546875 13.699219 16.292969 13.445312 16.292969 13.132812 C 16.292969 12.820312 16.546875 12.566406 16.859375 12.566406 L 52.675781 12.566406 C 52.988281 12.566406 53.242188 12.820312 53.242188 13.132812 C 53.242188 13.445312 52.988281 13.699219 52.675781 13.699219 " fill-opacity="1" fill-rule="nonzero"/><path fill="#002766" d="M 47.527344 8.390625 C 47.082031 8.390625 46.722656 8.75 46.722656 9.195312 C 46.722656 9.640625 47.082031 10.003906 47.527344 10.003906 C 47.972656 10.003906 48.335938 9.640625 48.335938 9.195312 C 48.335938 8.75 47.972656 8.390625 47.527344 8.390625 Z M 47.527344 11.132812 C 46.457031 11.132812 45.589844 10.265625 45.589844 9.195312 C 45.589844 8.128906 46.457031 7.257812 47.527344 7.257812 C 48.597656 7.257812 49.46875 8.128906 49.46875 9.195312 C 49.46875 10.265625 48.597656 11.132812 47.527344 11.132812 " fill-opacity="1" fill-rule="nonzero"/><path fill="#002766" d="M 41.445312 9.761719 L 25.832031 9.761719 C 25.515625 9.761719 25.265625 9.507812 25.265625 9.195312 C 25.265625 8.882812 25.515625 8.628906 25.832031 8.628906 L 41.445312 8.628906 C 41.757812 8.628906 42.011719 8.882812 42.011719 9.195312 C 42.011719 9.507812 41.757812 9.761719 41.445312 9.761719 " fill-opacity="1" fill-rule="nonzero"/><path fill="#002766" d="M 22.898438 9.761719 L 20.632812 9.761719 C 20.320312 9.761719 20.070312 9.507812 20.070312 9.195312 C 20.070312 8.882812 20.320312 8.628906 20.632812 8.628906 L 22.898438 8.628906 C 23.210938 8.628906 23.464844 8.882812 23.464844 9.195312 C 23.464844 9.507812 23.210938 9.761719 22.898438 9.761719 " fill-opacity="1" fill-rule="nonzero"/><path fill="#002766" d="M 29.660156 43.921875 C 29.40625 43.921875 29.199219 44.128906 29.199219 44.382812 L 29.199219 47.101562 C 29.199219 47.355469 29.40625 47.5625 29.660156 47.5625 L 39.875 47.5625 C 40.128906 47.5625 40.335938 47.355469 40.335938 47.101562 L 40.335938 44.382812 C 40.335938 44.128906 40.128906 43.921875 39.875 43.921875 Z M 39.875 48.691406 L 29.660156 48.691406 C 28.78125 48.691406 28.066406 47.980469 28.066406 47.101562 L 28.066406 44.382812 C 28.066406 43.503906 28.78125 42.789062 29.660156 42.789062 L 39.875 42.789062 C 40.753906 42.789062 41.46875 43.503906 41.46875 44.382812 L 41.46875 47.101562 C 41.46875 47.980469 40.753906 48.691406 39.875 48.691406 " fill-opacity="1" fill-rule="nonzero"/><path fill="#002766" d="M 48.148438 21.761719 L 29.839844 21.761719 C 29.523438 21.761719 29.273438 21.507812 29.273438 21.195312 C 29.273438 20.882812 29.523438 20.632812 29.839844 20.632812 L 48.148438 20.632812 C 48.460938 20.632812 48.714844 20.882812 48.714844 21.195312 C 48.714844 21.507812 48.460938 21.761719 48.148438 21.761719 " fill-opacity="1" fill-rule="nonzero"/><path fill="#002766" d="M 35.386719 29.769531 L 21.390625 29.769531 C 21.078125 29.769531 20.824219 29.515625 20.824219 29.203125 C 20.824219 28.890625 21.078125 28.640625 21.390625 28.640625 L 35.386719 28.640625 C 35.699219 28.640625 35.953125 28.890625 35.953125 29.203125 C 35.953125 29.515625 35.699219 29.769531 35.386719 29.769531 " fill-opacity="1" fill-rule="nonzero"/><path fill="#002766" d="M 35.332031 37.035156 L 21.390625 37.035156 C 21.078125 37.035156 20.824219 36.78125 20.824219 36.46875 C 20.824219 36.15625 21.078125 35.902344 21.390625 35.902344 L 35.332031 35.902344 C 35.644531 35.902344 35.898438 36.15625 35.898438 36.46875 C 35.898438 36.78125 35.644531 37.035156 35.332031 37.035156 " fill-opacity="1" fill-rule="nonzero"/><path fill="#002766" d="M 41.902344 36.433594 L 60.0625 36.433594 L 60.0625 29.636719 L 41.902344 29.636719 L 35.992188 32.964844 C 35.984375 32.96875 35.953125 32.988281 35.953125 33.035156 C 35.953125 33.082031 35.984375 33.101562 35.992188 33.105469 Z M 60.628906 37.566406 L 41.753906 37.566406 C 41.65625 37.566406 41.558594 37.539062 41.476562 37.492188 L 35.4375 34.089844 C 35.050781 33.875 34.820312 33.480469 34.820312 33.035156 C 34.820312 32.589844 35.050781 32.195312 35.4375 31.980469 L 41.476562 28.578125 C 41.558594 28.53125 41.65625 28.503906 41.753906 28.503906 L 60.628906 28.503906 C 60.941406 28.503906 61.195312 28.757812 61.195312 29.070312 L 61.195312 37 C 61.195312 37.3125 60.941406 37.566406 60.628906 37.566406 " fill-opacity="1" fill-rule="nonzero"/><path fill="#002766" d="M 61.601562 28.664062 C 61.378906 28.664062 61.195312 28.847656 61.195312 29.070312 L 61.195312 37 C 61.195312 37.222656 61.378906 37.40625 61.601562 37.40625 L 66.085938 37.40625 C 66.308594 37.40625 66.492188 37.222656 66.492188 37 L 66.492188 29.070312 C 66.492188 28.847656 66.308594 28.664062 66.085938 28.664062 Z M 66.085938 38.535156 L 61.601562 38.535156 C 60.753906 38.535156 60.0625 37.847656 60.0625 37 L 60.0625 29.070312 C 60.0625 28.222656 60.753906 27.535156 61.601562 27.535156 L 66.085938 27.535156 C 66.933594 27.535156 67.625 28.222656 67.625 29.070312 L 67.625 37 C 67.625 37.847656 66.933594 38.535156 66.085938 38.535156 " fill-opacity="1" fill-rule="nonzero"/><path fill="#002766" d="M 41.753906 37.566406 C 41.441406 37.566406 41.1875 37.3125 41.1875 37 L 41.1875 29.070312 C 41.1875 28.757812 41.441406 28.503906 41.753906 28.503906 C 42.066406 28.503906 42.320312 28.757812 42.320312 29.070312 L 42.320312 37 C 42.320312 37.3125 42.066406 37.566406 41.753906 37.566406 " fill-opacity="1" fill-rule="nonzero"/><g clip-path="url(#a6957b8c7f)"><path fill="#002766" d="M 67.625 36.433594 L 68.382812 36.433594 C 69.5 36.433594 70.40625 35.527344 70.40625 34.410156 L 70.40625 31.660156 C 70.40625 30.542969 69.5 29.636719 68.382812 29.636719 L 67.625 29.636719 Z M 68.382812 37.566406 L 67.058594 37.566406 C 66.746094 37.566406 66.492188 37.3125 66.492188 37 L 66.492188 29.070312 C 66.492188 28.757812 66.746094 28.503906 67.058594 28.503906 L 68.382812 28.503906 C 70.125 28.503906 71.539062 29.917969 71.539062 31.660156 L 71.539062 34.410156 C 71.539062 36.148438 70.125 37.566406 68.382812 37.566406 " fill-opacity="1" fill-rule="nonzero"/></g></svg>